<?xml version="1.0" encoding="UTF-8"?>
<svg width="250px" height="75px" viewBox="0 0 250 75" version="1.1" xmlns="http://www.w3.org/2000/svg" xmlns:xlink="http://www.w3.org/1999/xlink">
    <!-- Generator: Sketch 48.2 (47327) - http://www.bohemiancoding.com/sketch -->
    <title>Page 1</title>
    <desc>Created with Sketch.</desc>
    <defs>
        <polygon id="path-1" points="13.155 17 0.6 17 0.6 0.7073 13.155 0.7073"></polygon>
        <polygon id="path-3" points="0 74.8433 250 74.8433 250 0.0003 0 0.0003"></polygon>
    </defs>
    <g id="Logo/lg_full-color" stroke="none" stroke-width="1" fill="none" fill-rule="evenodd">
        <g id="Page-1">
            <path d="M68.2896,61.9331 C67.5046,61.5151 66.9026,61.3401 66.1186,61.3401 C63.8696,61.3401 62.3526,63.5041 62.3526,66.7841 C62.3526,69.7141 63.2416,71.9121 65.9356,71.9121 L68.2896,71.9121 L68.2896,61.9331 Z M70.6176,74.5291 L65.6746,74.5291 C62.1686,74.5291 59.9716,71.3541 59.9716,66.3291 C59.9716,61.7941 62.4046,58.5501 65.8306,58.5501 C66.6156,58.5501 67.3486,58.7241 68.2896,59.1761 L68.2896,50.7341 L70.6176,50.7341 L70.6176,74.5291 Z" id="Fill-1" fill="#1D1D1B"></path>
            <path d="M81.5229,65.1089 C81.4439,62.7359 80.4239,61.2369 78.7769,61.2369 C76.9979,61.2369 75.9259,62.6309 75.6109,65.1089 L81.5229,65.1089 Z M83.6159,72.9949 C82.2029,74.2509 80.9209,74.8429 78.9339,74.8429 C75.2719,74.8429 73.2309,70.8319 73.2309,66.5049 C73.2309,61.7579 75.4809,58.5499 78.7239,58.5499 C81.8359,58.5499 83.8249,61.3759 83.8249,67.1689 L75.5589,67.1689 C75.9259,70.2729 77.2589,71.8769 79.5089,71.8769 C80.9209,71.8769 82.2559,71.1789 83.6159,69.9939 L83.6159,72.9949 Z" id="Fill-3" fill="#1D1D1B"></path>
            <path d="M93.104,71.4605 L97.185,71.4605 C102.992,71.4605 104.326,65.5635 104.326,62.6315 C104.326,57.8515 102.05,53.8045 97.054,53.8045 L93.104,53.8045 L93.104,71.4605 Z M90.541,50.7335 L97.473,50.7335 C104.063,50.7335 106.967,57.0145 106.967,62.6315 C106.967,68.7365 103.384,74.5285 97.499,74.5285 L90.541,74.5285 L90.541,50.7335 Z" id="Fill-5" fill="#1D1D1B"></path>
            <path d="M112.0479,58.8638 L112.0479,62.4568 L112.1009,62.4568 C113.2769,59.7008 114.4019,58.5508 115.5009,58.5508 C116.4429,58.5508 117.3319,59.1418 118.2989,60.3638 L117.0689,63.0508 C116.3629,62.1428 115.4479,61.5148 114.8989,61.5148 C113.3039,61.5148 112.0479,63.6428 112.0479,66.3298 L112.0479,74.5288 L109.7199,74.5288 L109.7199,58.8638 L112.0479,58.8638 Z" id="Fill-7" fill="#1D1D1B"></path>
            <path d="M127.1177,74.5288 L127.1177,72.5408 C126.1497,73.9348 124.7887,74.8428 123.6387,74.8428 C121.2587,74.8428 119.5847,72.5748 119.5847,68.5978 L119.5847,58.8638 L121.9117,58.8638 L121.9117,68.8058 C121.9117,71.0058 122.7227,72.2618 124.3197,72.2618 C125.3647,72.2618 126.3587,71.4938 127.1177,70.0628 L127.1177,58.8638 L129.4457,58.8638 L129.4457,74.5288 L127.1177,74.5288 Z" id="Fill-9" fill="#1D1D1B"></path>
            <path d="M134.7085,58.8638 L134.7085,60.9228 C135.9105,59.3168 137.0335,58.5508 138.1335,58.5508 C139.6235,58.5508 140.8535,59.5268 141.6385,61.3758 C142.6585,59.8408 143.8885,58.5508 145.5625,58.5508 C147.9425,58.5508 149.4585,60.9928 149.4585,64.6898 L149.4585,74.5288 L147.1305,74.5288 L147.1305,64.8298 C147.1305,62.4568 146.0325,61.1668 144.6985,61.1668 C143.9375,61.1308 142.9205,62.0028 142.0835,63.1548 L142.0835,74.5288 L139.7555,74.5288 L139.7555,64.7938 C139.7555,62.2488 138.7865,61.1668 137.6365,61.1668 C136.4595,61.1668 135.6755,61.6548 134.7085,63.1548 L134.7085,74.5288 L132.3805,74.5288 L132.3805,58.8638 L134.7085,58.8638 Z" id="Fill-11" fill="#1D1D1B"></path>
            <path d="M154.6187,58.8638 L154.6187,60.9228 C155.8217,59.3168 156.9457,58.5508 158.0447,58.5508 C159.5367,58.5508 160.7647,59.5268 161.5507,61.3758 C162.5707,59.8408 163.8017,58.5508 165.4727,58.5508 C167.8537,58.5508 169.3687,60.9928 169.3687,64.6898 L169.3687,74.5288 L167.0437,74.5288 L167.0437,64.8298 C167.0437,62.4568 165.9437,61.1668 164.6107,61.1668 C163.8507,61.1308 162.8317,62.0028 161.9957,63.1548 L161.9957,74.5288 L159.6657,74.5288 L159.6657,64.7938 C159.6657,62.2488 158.6987,61.1668 157.5487,61.1668 C156.3707,61.1668 155.5857,61.6548 154.6187,63.1548 L154.6187,74.5288 L152.2907,74.5288 L152.2907,58.8638 L154.6187,58.8638 Z" id="Fill-13" fill="#1D1D1B"></path>
            <g id="Group-17" transform="translate(171.000000, 57.843300)">
                <mask id="mask-2" fill="white">
                    <use xlink:href="#path-1"></use>
                </mask>
                <g id="Clip-16"></g>
                <path d="M2.979,8.6963 C2.979,12.0103 4.524,14.2083 6.774,14.2083 C9.232,14.2083 10.776,12.1153 10.776,8.7303 C10.776,5.6943 9.1,3.4973 6.774,3.4973 C4.577,3.4973 2.979,5.6943 2.979,8.6963 M13.155,8.6963 C13.155,13.6503 10.567,17.0003 6.8,17.0003 C3.19,17.0003 0.6,13.5103 0.6,8.6963 C0.6,4.1943 3.294,0.7073 6.8,0.7073 C10.489,0.7073 13.155,4.0553 13.155,8.6963" id="Fill-15" fill="#1D1D1B" mask="url(#mask-2)"></path>
            </g>
            <path d="M188.7573,60.9224 L188.8103,60.9224 C189.6983,59.4204 191.0053,58.5504 192.3143,58.5504 C194.5383,58.5504 196.3163,60.5724 196.3163,64.8634 L196.3163,74.5284 L193.9863,74.5284 L193.9863,64.8294 C193.9863,62.5274 193.0993,61.0264 191.6873,61.0264 C190.6663,61.0264 189.8563,61.6544 188.7573,63.2954 L188.7573,74.5284 L186.4283,74.5284 L186.4283,58.8634 L188.7573,58.8634 L188.7573,60.9224 Z" id="Fill-18" fill="#1D1D1B"></path>
            <path d="M207.1226,61.9331 C206.3366,61.5151 205.7366,61.3401 204.9526,61.3401 C202.7036,61.3401 201.1856,63.5041 201.1856,66.7841 C201.1856,69.7141 202.0746,71.9121 204.7686,71.9121 L207.1226,71.9121 L207.1226,61.9331 Z M209.4506,74.5291 L204.5066,74.5291 C201.0026,74.5291 198.8036,71.3541 198.8036,66.3291 C198.8036,61.7941 201.2386,58.5501 204.6626,58.5501 C205.4476,58.5501 206.1806,58.7241 207.1226,59.1761 L207.1226,50.7341 L209.4506,50.7341 L209.4506,74.5291 Z" id="Fill-20" fill="#1D1D1B"></path>
            <polygon id="Fill-22" fill="#1D1D1B" points="210.8081 58.8638 213.3471 58.8638 216.5111 68.4928 219.5991 58.8638 222.0831 58.8638 216.9041 74.8428 216.1191 74.8428"></polygon>
            <path d="M224.8081,55.9683 C224.0471,55.9683 223.4201,55.1303 223.4201,54.1173 C223.4201,53.1073 224.0471,52.2693 224.8081,52.2693 C225.5651,52.2693 226.1931,53.1073 226.1931,54.1173 C226.1931,55.1303 225.5651,55.9683 224.8081,55.9683 L224.8081,55.9683 Z M223.6291,74.5293 L225.9571,74.5293 L225.9571,58.8643 L223.6291,58.8643 L223.6291,74.5293 Z" id="Fill-24" fill="#1D1D1B"></path>
            <mask id="mask-4" fill="white">
                <use xlink:href="#path-3"></use>
            </mask>
            <g id="Clip-27"></g>
            <polygon id="Fill-26" fill="#1D1D1B" mask="url(#mask-4)" points="229.098 74.5293 231.426 74.5293 231.426 50.7343 229.098 50.7343"></polygon>
            <polygon id="Fill-28" fill="#1D1D1B" mask="url(#mask-4)" points="234.566 74.5293 236.894 74.5293 236.894 50.7343 234.566 50.7343"></polygon>
            <path d="M247.6987,65.1089 C247.6207,62.7359 246.5997,61.2369 244.9507,61.2369 C243.1737,61.2369 242.1017,62.6309 241.7887,65.1089 L247.6987,65.1089 Z M249.7917,72.9949 C248.3787,74.2509 247.0957,74.8429 245.1087,74.8429 C241.4467,74.8429 239.4077,70.8319 239.4077,66.5049 C239.4077,61.7579 241.6557,58.5499 244.9007,58.5499 C248.0107,58.5499 249.9997,61.3759 249.9997,67.1689 L241.7347,67.1689 C242.1017,70.2729 243.4357,71.8769 245.6827,71.8769 C247.0957,71.8769 248.4317,71.1789 249.7917,69.9939 L249.7917,72.9949 Z" id="Fill-29" fill="#1D1D1B" mask="url(#mask-4)"></path>
            <path d="M105.415,25.0694 C103.218,23.3594 101.335,22.5914 99.268,22.5914 C95.188,22.5914 92.154,26.4644 92.154,31.6974 C92.154,37.0364 95.083,40.7344 99.373,40.7344 C101.387,40.7344 103.584,39.7914 105.598,38.0474 L105.598,41.7794 C103.846,43.0004 101.936,43.8734 99.138,43.8734 C92.441,43.8734 89.512,36.9994 89.512,32.0114 C89.512,24.7544 93.619,19.4504 99.295,19.4504 C101.125,19.4504 102.982,20.0454 105.415,21.4034 L105.415,25.0694 Z" id="Fill-30" fill="#1D1D1B" mask="url(#mask-4)"></path>
            <path d="M116.4004,34.1392 C116.3224,31.7672 115.3024,30.2662 113.6534,30.2662 C111.8754,30.2662 110.8034,31.6622 110.4894,34.1392 L116.4004,34.1392 Z M118.4924,42.0242 C117.0814,43.2812 115.7984,43.8732 113.8114,43.8732 C110.1494,43.8732 108.1084,39.8612 108.1084,35.5352 C108.1084,30.7902 110.3584,27.5802 113.6024,27.5802 C116.7144,27.5802 118.7024,30.4072 118.7024,36.1982 L110.4374,36.1982 C110.8034,39.3032 112.1374,40.9092 114.3864,40.9092 C115.7984,40.9092 117.1324,40.2102 118.4924,39.0252 L118.4924,42.0242 Z M116.2174,20.7422 L113.2884,25.8712 L111.8494,25.8712 L113.6024,20.7422 L116.2174,20.7422 Z" id="Fill-31" fill="#1D1D1B" mask="url(#mask-4)"></path>
            <path d="M124.6899,44.3277 C123.1209,44.3277 122.0219,45.3047 122.0219,46.7007 C122.0219,48.2697 123.1719,49.1077 125.2919,49.1077 C127.3319,49.1077 128.5349,48.2697 128.5349,46.8417 C128.5349,44.8497 126.1279,44.3277 124.6899,44.3277 L124.6899,44.3277 Z M125.2919,30.5807 C124.0099,30.5807 122.9629,31.8717 122.9629,33.4077 C122.9629,35.1167 123.9049,36.2667 125.3169,36.2667 C126.6259,36.2667 127.5669,35.0467 127.5669,33.3367 C127.5669,31.8377 126.5209,30.5807 125.2919,30.5807 L125.2919,30.5807 Z M130.8359,30.3027 L128.4299,30.3027 C129.3449,31.5227 129.6609,32.3947 129.6609,33.7217 C129.6609,35.0117 129.1099,36.5137 128.5609,37.2437 C126.9909,39.4777 123.7999,38.3607 123.7999,40.2107 C123.7999,41.0837 125.0299,41.6067 127.3839,42.2337 C129.8949,42.8967 130.7849,44.6057 130.7849,46.5947 C130.7849,49.7007 128.7179,51.5837 125.2389,51.5837 C122.0739,51.5837 119.8249,49.5967 119.8249,46.8417 C119.8249,44.5367 120.7399,43.1757 122.7799,42.5147 C121.9699,41.8497 121.6039,41.2227 121.6039,40.5247 C121.6039,39.5137 122.3359,38.6407 123.4599,38.2927 L123.4599,38.2227 C122.5969,37.7327 121.9429,37.0697 121.4989,36.2317 C121.0799,35.4317 120.8709,34.4547 120.8709,33.3037 C120.8709,29.9527 122.8329,27.8937 125.9969,27.8937 L130.8359,27.8937 L130.8359,30.3027 Z" id="Fill-32" fill="#1D1D1B" mask="url(#mask-4)"></path>
            <path d="M140.6167,34.1392 C140.5387,31.7672 139.5167,30.2662 137.8687,30.2662 C136.0917,30.2662 135.0187,31.6622 134.7047,34.1392 L140.6167,34.1392 Z M142.7087,42.0242 C141.2967,43.2812 140.0147,43.8732 138.0247,43.8732 C134.3637,43.8732 132.3237,39.8612 132.3237,35.5352 C132.3237,30.7902 134.5737,27.5802 137.8177,27.5802 C140.9287,27.5802 142.9177,30.4072 142.9177,36.1982 L134.6537,36.1982 C135.0187,39.3032 136.3527,40.9092 138.6007,40.9092 C140.0147,40.9092 141.3487,40.2102 142.7087,39.0252 L142.7087,42.0242 Z" id="Fill-33" fill="#1D1D1B" mask="url(#mask-4)"></path>
            <path d="M147.8589,40.3843 C148.5649,40.8383 149.3239,41.0833 150.0559,41.0833 C152.2269,41.0833 153.7959,38.8493 153.7959,35.8153 C153.7959,32.5713 152.5159,30.6853 149.9779,30.6853 L147.8589,30.6853 L147.8589,40.3843 Z M147.8589,51.5833 L145.5319,51.5833 L145.5319,27.8943 L149.5589,27.8943 C153.8499,27.8943 156.1759,30.6853 156.1759,35.8493 C156.1759,40.5583 153.6939,43.8733 150.2129,43.8733 C149.4559,43.8733 148.7479,43.6643 147.8589,43.1753 L147.8589,51.5833 Z" id="Fill-34" fill="#1D1D1B" mask="url(#mask-4)"></path>
            <path d="M30.6606,41.0083 C31.4126,40.0973 32.8376,39.5193 34.5236,39.5193 C35.9026,39.5193 37.1956,39.9533 38.0096,40.6023 L38.0096,0.0003 L30.6606,0.0003 L30.6606,41.0083 Z" id="Fill-35" fill="#EB212E" mask="url(#mask-4)"></path>
            <path d="M46.5269,33.564 C45.7749,34.475 44.3489,35.052 42.6639,35.052 C41.2849,35.052 39.9929,34.62 39.1779,33.97 L39.1779,74.571 L46.5269,74.571 L46.5269,33.564 Z" id="Fill-36" fill="#EB212E" mask="url(#mask-4)"></path>
            <path d="M42.126,22.7334 C42.126,22.7334 41.501,22.7494 41.472,22.7494 C40.298,22.7534 39.541,23.5784 39.2,25.2964 L38.774,26.8434 L73.317,26.8514 C72.948,26.2234 72.53,25.6314 72.015,25.1194 C70.449,23.5604 68.403,22.7394 66.098,22.7454 L65.977,22.7464 L65.857,22.7234 L65.787,22.7104 C65.35,22.7104 42.108,22.7334 42.126,22.7334 L42.126,22.7334 Z M43.143,20.1904 L75.866,20.1974 L75.866,22.7594 L73.124,22.7604 C73.349,22.9494 73.599,23.1084 73.809,23.3174 C75.968,25.4664 77.161,28.4434 77.169,31.7034 C77.18,35.9584 74.864,39.8744 71.12,41.9204 L53.353,51.4854 L52.692,50.7264 C52.604,50.6264 50.553,48.2344 50.795,45.3724 C50.929,43.7904 51.709,42.4034 53.114,41.2564 L53.185,41.1974 L53.262,41.1504 C53.262,41.1504 54.285,40.5354 54.348,40.4994 L62.417,36.2424 L62.582,36.1714 L62.626,36.1534 C63.497,35.6654 63.993,34.6864 63.859,33.7284 C63.834,33.5884 63.712,33.2574 63.512,33.1374 L64.82,30.9574 C66.09,31.7204 66.344,33.1624 66.372,33.3404 C66.658,35.3864 65.633,37.4234 63.817,38.4124 C63.817,38.4124 55.535,42.7454 55.596,42.7124 L54.693,43.2574 C53.858,43.9514 53.406,44.7084 53.329,45.5744 C53.237,46.6134 53.672,47.5754 54.063,48.2364 C55.019,47.7334 69.911,39.6874 69.905,39.6894 C72.826,38.0914 74.636,35.0334 74.627,31.7084 C74.626,30.9044 74.504,30.1374 74.328,29.3924 L37.105,29.3834 L35.437,29.3834 L35.879,27.7754 C35.879,27.7754 36.749,24.6214 36.728,24.7144 C37.198,22.3164 38.585,20.8114 40.45,20.3914 C40.706,19.4684 41.316,17.0284 41.316,17.0284 C41.946,15.0794 43.271,13.8724 44.977,13.5564 C45.133,12.9944 45.734,10.4954 45.734,10.4954 C46.304,8.3714 47.652,7.0494 49.417,6.6884 C49.673,5.7644 50.069,4.3344 50.054,4.3994 C50.606,1.5824 52.396,0.0064 54.81,0.0004 L75.866,0.0004 L75.866,2.4354 L54.797,2.4344 C53.624,2.4364 52.867,3.2634 52.525,4.9834 L52.268,6.4814 L75.845,6.4814 L75.845,9.0444 C75.845,9.0444 51,9.0454 51.01,9.0454 C51.01,9.0454 50.385,9.0604 50.355,9.0614 C49.283,9.0644 48.559,9.7544 48.181,11.1864 L47.661,13.3864 L75.866,13.3884 L75.866,15.9714 C75.866,15.9714 45.863,15.9434 45.834,15.9434 C44.837,15.9464 44.141,16.5434 43.744,17.7764 L43.143,20.1904 Z" id="Fill-37" fill="#1D1D1B" mask="url(#mask-4)"></path>
            <path d="M35.0425,51.8277 C35.0425,51.8277 35.6685,51.8117 35.6965,51.8117 C36.8705,51.8077 37.6275,50.9827 37.9685,49.2647 L38.3955,47.7187 L3.8525,47.7107 C4.2205,48.3377 4.6385,48.9297 5.1535,49.4407 C6.7185,50.9987 8.7665,51.8207 11.0715,51.8147 L11.1925,51.8147 L11.3115,51.8377 L11.3815,51.8507 C11.8185,51.8507 35.0605,51.8277 35.0425,51.8277 L35.0425,51.8277 Z M34.0255,54.3707 L1.3025,54.3637 L1.3025,51.8017 L4.0455,51.7997 C3.8195,51.6087 3.5715,51.4517 3.3605,51.2447 C1.2005,49.0937 0.0075,46.1157 0.0005,42.8577 C-0.0105,38.6017 2.3045,34.6857 6.0485,32.6397 L23.8165,23.0757 L24.4775,23.8347 C24.5645,23.9337 26.6165,26.3257 26.3735,29.1867 C26.2395,30.7707 25.4595,32.1567 24.0545,33.3057 L23.9845,33.3627 L23.9065,33.4097 C23.9065,33.4097 22.8835,34.0247 22.8215,34.0607 L14.7515,38.3167 L14.5875,38.3887 L14.5435,38.4047 C13.6715,38.8947 13.1755,39.8747 13.3095,40.8327 C13.3365,40.9737 13.4565,41.3027 13.6565,41.4227 L12.3485,43.6027 C11.0785,42.8407 10.8245,41.3977 10.7975,41.2207 C10.5105,39.1747 11.5365,37.1367 13.3515,36.1477 C13.3515,36.1477 21.6335,31.8137 21.5725,31.8477 L22.4755,31.3037 C23.3105,30.6097 23.7635,29.8507 23.8395,28.9857 C23.9325,27.9467 23.4965,26.9837 23.1055,26.3237 C22.1495,26.8267 7.2575,34.8747 7.2635,34.8717 C4.3435,36.4687 2.5335,39.5257 2.5415,42.8507 C2.5425,43.6557 2.6655,44.4227 2.8415,45.1677 L40.0635,45.1767 L41.7325,45.1767 L41.2885,46.7867 C41.2885,46.7867 40.4195,49.9387 40.4415,49.8457 C39.9705,52.2447 38.5845,53.7507 36.7185,54.1697 C36.4635,55.0927 35.8535,57.5317 35.8535,57.5317 C35.2235,59.4817 33.8985,60.6877 32.1915,61.0047 C32.0365,61.5647 31.4345,64.0647 31.4345,64.0647 C30.8645,66.1877 29.5165,67.5117 27.7515,67.8727 C27.4965,68.7957 27.1005,70.2237 27.1155,70.1617 C26.5625,72.9757 24.7725,74.5567 22.3585,74.5617 L1.3025,74.5617 L1.3025,72.1257 L22.3705,72.1257 C23.5445,72.1247 24.3015,71.2987 24.6435,69.5777 L24.9005,68.0787 L1.3245,68.0787 L1.3245,65.5157 L26.1585,65.5157 C26.1585,65.5157 26.7845,65.4997 26.8135,65.4997 C27.8855,65.4977 28.6105,64.8067 28.9875,63.3757 L29.5065,61.1737 L1.3025,61.1727 L1.3025,58.5897 C1.3025,58.5897 31.3065,58.6167 31.3335,58.6167 C32.3325,58.6137 33.0275,58.0177 33.4245,56.7837 L34.0255,54.3707 Z" id="Fill-38" fill="#1D1D1B" mask="url(#mask-4)"></path>
        </g>
    </g>
</svg>